<svg id="Layer_1" enable-background="new 0 0 512.002 512.002" height="512" viewBox="0 0 512.002 512.002" width="512" xmlns="http://www.w3.org/2000/svg"><g><path clip-rule="evenodd" d="m396.001 446.252v-59.25-147.002h-280v95.2 116.802h280z" fill="#a4fbc4" fill-rule="evenodd"/><g fill="#020288"><path d="m502.001 492.002h-76.001v-40c0-5.523-4.478-10-10-10h-10v-23.38c22.637 11.151 50.33-6.278 50-31.619v-262.003c0-19.299-15.701-35-35-35h-15v-20h10c5.522 0 10-4.477 10-10v-50c0-5.523-4.478-10-10-10h-320c-5.523 0-10 4.477-10 10v50c0 5.523 4.477 10 10 10h10.001v372.002h-10c-5.523 0-10 4.477-10 10v40h-76c-13.268.528-13.258 19.477 0 20h492.001c13.268-.529 13.257-19.476-.001-20zm-81-90c-8.271 0-15-6.729-15-15v-177.002h30v177.003c0 8.27-6.729 14.999-15 14.999zm0-292.002c8.271 0 15 6.729 15 15v65h-30v-80zm-315-90h300v30h-300zm20 50h259.999v372.002h-259.999zm-20 392.002h300v30h-300z"/><path d="m356.001 90h-200c-5.523 0-10 4.477-10 10v100c0 5.523 4.477 10 10 10h199.999c5.522 0 10-4.477 10-10v-100c.001-5.523-4.477-10-9.999-10zm-10 100h-180v-80h179.999v80z"/><path d="m301.404 293.517c-52.002-14.345-102.295 32.245-92.133 85.073l-5.34 5.34c-3.906 3.905-3.906 10.237 0 14.143 3.905 3.905 10.237 3.905 14.142 0l5.341-5.34c52.958 10.049 99.319-39.93 85.073-92.133-.925-3.459-3.626-6.16-7.083-7.083zm-26.266 64.574c-8.873 8.875-20.469 14.248-32.628 15.544l9.413-9.413c3.906-3.905 3.906-10.237 0-14.142-3.905-3.906-10.237-3.905-14.142 0l-9.415 9.415c1.296-12.159 6.67-23.755 15.544-32.63 12.213-12.211 29.584-17.792 46.473-15.245 2.552 16.894-3.033 34.259-15.245 46.471z"/></g></g></svg>